<svg id="visual" viewBox="0 0 900 600" width="900" height="600" xmlns="http://www.w3.org/2000/svg" xmlns:xlink="http://www.w3.org/1999/xlink" version="1.1"><path d="M0 43L13.7 43C27.3 43 54.7 43 82 50C109.3 57 136.7 71 163.8 77C191 83 218 81 245.2 78C272.3 75 299.7 71 327 66C354.3 61 381.7 55 409 57C436.3 59 463.7 69 491 80C518.3 91 545.7 103 573 107C600.3 111 627.7 107 654.8 110C682 113 709 123 736.2 124C763.3 125 790.7 117 818 110C845.3 103 872.7 97 886.3 94L900 91L900 0L886.3 0C872.7 0 845.3 0 818 0C790.7 0 763.3 0 736.2 0C709 0 682 0 654.8 0C627.7 0 600.3 0 573 0C545.7 0 518.3 0 491 0C463.7 0 436.3 0 409 0C381.7 0 354.3 0 327 0C299.7 0 272.3 0 245.2 0C218 0 191 0 163.8 0C136.7 0 109.3 0 82 0C54.7 0 27.3 0 13.7 0L0 0Z" fill="#705f99"></path><path d="M0 133L13.7 132C27.3 131 54.7 129 82 132C109.3 135 136.7 143 163.8 149C191 155 218 159 245.2 154C272.3 149 299.7 135 327 122C354.3 109 381.7 97 409 96C436.3 95 463.7 105 491 125C518.3 145 545.7 175 573 189C600.3 203 627.7 201 654.8 197C682 193 709 187 736.2 179C763.3 171 790.7 161 818 163C845.3 165 872.7 179 886.3 186L900 193L900 89L886.3 92C872.7 95 845.3 101 818 108C790.7 115 763.3 123 736.2 122C709 121 682 111 654.8 108C627.7 105 600.3 109 573 105C545.7 101 518.3 89 491 78C463.7 67 436.3 57 409 55C381.7 53 354.3 59 327 64C299.7 69 272.3 73 245.2 76C218 79 191 81 163.8 75C136.7 69 109.3 55 82 48C54.7 41 27.3 41 13.7 41L0 41Z" fill="#5c4b88"></path><path d="M0 193L13.7 196C27.3 199 54.7 205 82 222C109.3 239 136.7 267 163.8 277C191 287 218 279 245.2 275C272.3 271 299.7 271 327 262C354.3 253 381.7 235 409 237C436.3 239 463.7 261 491 277C518.3 293 545.7 303 573 310C600.3 317 627.7 321 654.8 310C682 299 709 273 736.2 259C763.3 245 790.7 243 818 250C845.3 257 872.7 273 886.3 281L900 289L900 191L886.3 184C872.7 177 845.3 163 818 161C790.7 159 763.3 169 736.2 177C709 185 682 191 654.8 195C627.7 199 600.3 201 573 187C545.7 173 518.3 143 491 123C463.7 103 436.3 93 409 94C381.7 95 354.3 107 327 120C299.7 133 272.3 147 245.2 152C218 157 191 153 163.8 147C136.7 141 109.3 133 82 130C54.7 127 27.3 129 13.7 130L0 131Z" fill="#493778"></path><path d="M0 391L13.7 405C27.3 419 54.7 447 82 447C109.3 447 136.7 419 163.8 406C191 393 218 395 245.2 398C272.3 401 299.7 405 327 418C354.3 431 381.7 453 409 455C436.3 457 463.7 439 491 425C518.3 411 545.7 401 573 406C600.3 411 627.7 431 654.8 435C682 439 709 427 736.2 432C763.3 437 790.7 459 818 462C845.3 465 872.7 449 886.3 441L900 433L900 287L886.3 279C872.7 271 845.3 255 818 248C790.7 241 763.3 243 736.2 257C709 271 682 297 654.8 308C627.7 319 600.3 315 573 308C545.7 301 518.3 291 491 275C463.7 259 436.3 237 409 235C381.7 233 354.3 251 327 260C299.7 269 272.3 269 245.2 273C218 277 191 285 163.8 275C136.7 265 109.3 237 82 220C54.7 203 27.3 197 13.7 194L0 191Z" fill="#3e3168"></path><path d="M0 601L13.7 601C27.3 601 54.7 601 82 601C109.3 601 136.7 601 163.8 601C191 601 218 601 245.2 601C272.3 601 299.7 601 327 601C354.3 601 381.7 601 409 601C436.3 601 463.7 601 491 601C518.3 601 545.7 601 573 601C600.3 601 627.7 601 654.8 601C682 601 709 601 736.2 601C763.3 601 790.7 601 818 601C845.3 601 872.7 601 886.3 601L900 601L900 431L886.3 439C872.7 447 845.3 463 818 460C790.7 457 763.3 435 736.2 430C709 425 682 437 654.8 433C627.7 429 600.3 409 573 404C545.7 399 518.3 409 491 423C463.7 437 436.3 455 409 453C381.7 451 354.3 429 327 416C299.7 403 272.3 399 245.2 396C218 393 191 391 163.8 404C136.7 417 109.3 445 82 445C54.7 445 27.3 417 13.7 403L0 389Z" fill="#342a59"></path></svg>